<svg width="23" height="25" viewBox="0 0 23 25" fill="none" xmlns="http://www.w3.org/2000/svg">
<path d="M3.26005 16.197L7.85126 16.197V18.9137C7.85126 20.1771 8.30114 21.0963 9.19473 21.6407C10.5998 22.4984 12.5103 22.0156 12.5904 21.9899C12.8985 21.9078 13.108 21.6715 13.108 21.4045V18.1845C13.108 17.1882 13.6812 16.3459 14.8089 15.668C15.5423 15.2264 16.2942 14.9953 16.5591 14.9234C16.7564 15.175 17.0953 15.3394 17.4836 15.3394H21.4523C22.0624 15.3394 22.5555 14.9234 22.5555 14.4201L22.5555 5.40201C22.5555 4.89359 22.0563 4.48275 21.4523 4.48275H17.4836C17.2124 4.48275 16.9659 4.56491 16.7687 4.69844C16.1832 4.26192 15.4129 4 14.5809 4L5.12119 4C4.18446 4 3.35249 4.19002 2.71773 4.54437C1.91042 4.9963 1.40508 5.72556 1.2695 6.64483L0.0246377 13.2235C0.00614964 13.3211 -1.26809e-05 13.4135 -1.26809e-05 13.506C0.067777 14.985 1.5345 16.197 3.26005 16.197ZM17.8595 5.70501H21.0826L21.0826 14.1017H17.8595V5.70501ZM1.4852 13.4084L2.73006 6.81944C2.73006 6.8143 2.73006 6.80403 2.73622 6.79889C2.79169 6.40859 2.96424 5.22741 5.12119 5.22741L14.5809 5.22741C15.4437 5.22741 16.1832 5.74096 16.3435 6.44454C16.3496 6.47535 16.3619 6.50616 16.3743 6.53698V13.6857C16.3373 13.6908 16.2942 13.696 16.2572 13.7062C16.2079 13.7165 15.0986 13.9784 13.9831 14.6409C12.4425 15.5499 11.629 16.7773 11.629 18.1845V20.9012C11.1853 20.9423 10.5382 20.9371 10.0698 20.6495C9.58298 20.3517 9.33031 19.7662 9.33031 18.9189V15.5859C9.33031 15.2469 8.99752 14.9696 8.59078 14.9696L3.26005 14.9696C2.32949 14.9696 1.51601 14.2763 1.47903 13.4546C1.47903 13.4495 1.47903 13.4341 1.4852 13.4084Z" fill="black"/>
</svg>
