<svg width="30" height="25" viewBox="0 0 30 25" fill="none" xmlns="http://www.w3.org/2000/svg">
<g clip-path="url(#clip0_6_109)">
<path d="M27.0097 10.8799H22.4185V8.16319C22.4185 6.89984 21.9686 5.98057 21.075 5.4362C19.6699 4.57856 17.7595 5.06131 17.6794 5.08698C17.3712 5.16915 17.1617 5.40539 17.1617 5.67244V8.89245C17.1617 9.88875 16.5886 10.731 15.4608 11.4089C14.7274 11.8505 13.9756 12.0816 13.7106 12.1535C13.5134 11.9019 13.1744 11.7376 12.7862 11.7376H8.81742C8.20731 11.7376 7.71429 12.1535 7.71429 12.6568V21.6749C7.71429 22.1833 8.21347 22.5942 8.81742 22.5942H12.7862C13.0574 22.5942 13.3039 22.512 13.5011 22.3785C14.0865 22.815 14.8569 23.0769 15.6888 23.0769H25.1486C26.0853 23.0769 26.9173 22.8869 27.552 22.5325C28.3593 22.0806 28.8647 21.3514 29.0002 20.4321L30.2451 13.8534C30.2636 13.7558 30.2698 13.6634 30.2698 13.571C30.202 12.0919 28.7352 10.8799 27.0097 10.8799ZM12.4103 21.3719H9.18718V12.9752H12.4103V21.3719ZM28.7845 13.6685L27.5397 20.2575C27.5397 20.2626 27.5397 20.2729 27.5335 20.278C27.4781 20.6683 27.3055 21.8495 25.1486 21.8495H15.6888C14.826 21.8495 14.0865 21.336 13.9263 20.6324C13.9201 20.6016 13.9078 20.5708 13.8955 20.5399V13.3912C13.9325 13.3861 13.9756 13.3809 14.0126 13.3707C14.0619 13.3604 15.1712 13.0985 16.2866 12.436C17.8273 11.527 18.6408 10.2996 18.6408 8.89245V6.17573C19.0845 6.13464 19.7315 6.13978 20.1999 6.42737C20.6868 6.72523 20.9394 7.31069 20.9394 8.15806V11.4911C20.9394 11.83 21.2722 12.1073 21.679 12.1073H27.0097C27.9403 12.1073 28.7537 12.8006 28.7907 13.6223C28.7907 13.6275 28.7907 13.6429 28.7845 13.6685Z" fill="black"/>
<path d="M19.7377 3.29467C20.1444 3.29467 20.4772 3.01735 20.4772 2.6784V-1.30681C20.4772 -1.64576 20.1444 -1.92308 19.7377 -1.92308C19.331 -1.92308 18.9982 -1.64576 18.9982 -1.30681V2.67326C18.9982 3.01735 19.331 3.29467 19.7377 3.29467Z" fill="black"/>
<path d="M24.1502 7.6445C24.1502 7.98345 24.483 8.26077 24.8897 8.26077H29.6658C30.0726 8.26077 30.4053 7.98345 30.4053 7.6445C30.4053 7.30555 30.0726 7.02823 29.6658 7.02823H24.8897C24.483 7.02823 24.1502 7.30555 24.1502 7.6445Z" fill="black"/>
<path d="M9.80343 8.26077H14.5795C14.9863 8.26077 15.319 7.98345 15.319 7.6445C15.319 7.30555 14.9863 7.02823 14.5795 7.02823H9.80343C9.39669 7.02823 9.0639 7.30555 9.0639 7.6445C9.0639 7.98345 9.39669 8.26077 9.80343 8.26077Z" fill="black"/>
<path d="M11.8433 1.5948C12.0405 1.5948 12.2315 1.52804 12.3671 1.41505C12.5027 1.30207 12.5828 1.14287 12.5828 0.978528C12.5828 0.81419 12.5027 0.654987 12.3671 0.542004C12.2315 0.429021 12.0405 0.362259 11.8433 0.362259C11.6461 0.362259 11.455 0.429021 11.3195 0.542004C11.1839 0.654987 11.1038 0.81419 11.1038 0.978528C11.1038 1.14287 11.1839 1.30207 11.3195 1.41505C11.455 1.53317 11.6461 1.5948 11.8433 1.5948Z" fill="black"/>
<path d="M13.5319 3.00193C13.7229 3.00193 13.9078 2.94031 14.0557 2.82219C14.3454 2.58082 14.3454 2.19051 14.0557 1.94914C13.7661 1.70777 13.2977 1.70777 13.0081 1.94914C12.7184 2.19051 12.7184 2.58082 13.0081 2.82219C13.1498 2.94544 13.3409 3.00193 13.5319 3.00193Z" fill="black"/>
<path d="M15.2205 4.41423C15.4177 4.41423 15.6087 4.34746 15.7443 4.23448C15.8799 4.1215 15.96 3.96229 15.96 3.79796C15.96 3.63362 15.8799 3.47441 15.7443 3.36143C15.6087 3.24845 15.4177 3.18169 15.2205 3.18169C15.0233 3.18169 14.8322 3.24845 14.6967 3.36143C14.5611 3.47441 14.481 3.63362 14.481 3.79796C14.481 3.96229 14.5611 4.1215 14.6967 4.23448C14.8322 4.34746 15.0233 4.41423 15.2205 4.41423Z" fill="black"/>
<path d="M27.1268 1.88238C27.324 1.88238 27.515 1.81562 27.6506 1.70264C27.7862 1.58965 27.8663 1.43045 27.8663 1.26611C27.8663 1.10177 27.7862 0.942569 27.6506 0.829587C27.515 0.716604 27.324 0.649841 27.1268 0.649841C26.9296 0.649841 26.7385 0.716604 26.603 0.829587C26.4674 0.942569 26.3873 1.10177 26.3873 1.26611C26.3873 1.43045 26.4674 1.58965 26.603 1.70264C26.7385 1.82075 26.9296 1.88238 27.1268 1.88238Z" fill="black"/>
<path d="M25.4382 3.29467C25.6293 3.29467 25.8141 3.23305 25.962 3.11493C26.2517 2.87356 26.2517 2.48325 25.962 2.24188C25.6724 2.00051 25.204 2.00051 24.9144 2.24188C24.6247 2.48325 24.6247 2.87356 24.9144 3.11493C25.0561 3.23305 25.2472 3.29467 25.4382 3.29467Z" fill="black"/>
<path d="M23.7497 4.70182C23.9469 4.70182 24.1379 4.63506 24.2735 4.52208C24.4091 4.4091 24.4892 4.24989 24.4892 4.08555C24.4892 3.92122 24.4091 3.76201 24.2735 3.64903C24.1379 3.53605 23.9469 3.46928 23.7497 3.46928C23.5524 3.46928 23.3614 3.53605 23.2258 3.64903C23.0902 3.76201 23.0101 3.92122 23.0101 4.08555C23.0101 4.24989 23.0902 4.4091 23.2258 4.52208C23.3614 4.63506 23.5524 4.70182 23.7497 4.70182Z" fill="black"/>
</g>
<defs>
<clipPath id="clip0_6_109">
<rect width="30" height="25" fill="white"/>
</clipPath>
</defs>
</svg>
