<svg width="300" height="50" viewBox="0 0 300 50" fill="none" xmlns="http://www.w3.org/2000/svg">
<path d="M0 50C0 22.3858 22.3858 0 50 0H300C300 27.6142 277.614 50 250 50H0Z" fill="black"/>
<path d="M52.8906 30.2031C53.4635 30.2031 54.0208 30.1406 54.5625 30.0156C55.1146 29.8906 55.5938 29.6302 56 29.2344C56.4167 28.8385 56.7552 28.2708 57.0156 27.5312C57.276 26.7812 57.4062 25.776 57.4062 24.5156C57.4062 23.276 57.2812 22.2812 57.0312 21.5312C56.7812 20.7708 56.4531 20.1875 56.0469 19.7812C55.651 19.375 55.1719 19.1094 54.6094 18.9844C54.0573 18.849 53.4844 18.7812 52.8906 18.7812H51.4219V30.2031H52.8906ZM39.6406 36V30.2031C40.5573 30.2031 41.2135 30.0833 41.6094 29.8438C42.0052 29.5938 42.2031 29.1302 42.2031 28.4531V20.5469C42.2031 19.8594 42.0052 19.3958 41.6094 19.1562C41.2135 18.9062 40.5573 18.7812 39.6406 18.7812V12.9844H56.2188C57.7083 12.9844 59.151 13.1823 60.5469 13.5781C61.9427 13.974 63.1823 14.6198 64.2656 15.5156C65.3594 16.4115 66.2344 17.599 66.8906 19.0781C67.5573 20.5469 67.8906 22.3594 67.8906 24.5156C67.8906 26.6719 67.5625 28.4844 66.9062 29.9531C66.2604 31.4219 65.375 32.6042 64.25 33.5C63.1354 34.3958 61.8281 35.0417 60.3281 35.4375C58.8281 35.8333 57.2344 36.0312 55.5469 36.0312L39.6406 36ZM78.2812 28.3594C78.3229 29.9115 78.6146 30.9844 79.1562 31.5781C79.7083 32.1615 80.4948 32.4531 81.5156 32.4531C81.8594 32.4531 82.1927 32.4062 82.5156 32.3125C82.849 32.2083 83.1562 32.0469 83.4375 31.8281C83.7188 31.599 83.9583 31.3021 84.1562 30.9375C84.3646 30.5625 84.5 30.0938 84.5625 29.5312H90.25C90.0417 30.875 89.6562 32 89.0938 32.9062C88.5417 33.8125 87.8281 34.5469 86.9531 35.1094C86.0781 35.6615 85.0573 36.0573 83.8906 36.2969C82.7344 36.5469 81.4427 36.6719 80.0156 36.6719C78.5469 36.6719 77.1667 36.4844 75.875 36.1094C74.5833 35.7344 73.4479 35.1667 72.4688 34.4062C71.5 33.6354 70.7396 32.6719 70.1875 31.5156C69.6354 30.349 69.3594 28.9635 69.3594 27.3594C69.3594 25.8281 69.6198 24.4844 70.1406 23.3281C70.6615 22.1719 71.3906 21.2083 72.3281 20.4375C73.276 19.6562 74.3906 19.0677 75.6719 18.6719C76.9635 18.276 78.3802 18.0781 79.9219 18.0781C81.8177 18.0781 83.4479 18.3281 84.8125 18.8281C86.1771 19.3281 87.2917 20.026 88.1562 20.9219C89.0208 21.8177 89.6562 22.8958 90.0625 24.1562C90.4688 25.4167 90.6615 26.8177 90.6406 28.3594H78.2812ZM80.5938 22.2969C79.8646 22.2969 79.3229 22.5573 78.9688 23.0781C78.625 23.5885 78.3958 24.4375 78.2812 25.625H82.8594C82.7969 24.6042 82.5781 23.7969 82.2031 23.2031C81.8281 22.599 81.2917 22.2969 80.5938 22.2969ZM103.625 22.2969C102.729 22.2969 102.042 22.6771 101.562 23.4375C101.083 24.1979 100.844 25.4635 100.844 27.2344C100.844 29.0052 101.089 30.2656 101.578 31.0156C102.078 31.7552 102.839 32.125 103.859 32.125C104.151 32.125 104.448 32.0781 104.75 31.9844C105.052 31.8906 105.323 31.7552 105.562 31.5781C105.812 31.3906 106.016 31.1562 106.172 30.875C106.339 30.5833 106.432 30.2448 106.453 29.8594H111.5C111.167 32.1823 110.229 33.901 108.688 35.0156C107.156 36.1198 104.969 36.6719 102.125 36.6719C100.698 36.6719 99.3646 36.4844 98.125 36.1094C96.8854 35.7344 95.8073 35.1667 94.8906 34.4062C93.974 33.6354 93.2552 32.6719 92.7344 31.5156C92.2135 30.349 91.9531 28.9635 91.9531 27.3594C91.9531 25.8281 92.2135 24.4844 92.7344 23.3281C93.2552 22.1719 93.9844 21.2083 94.9219 20.4375C95.8698 19.6562 96.9844 19.0677 98.2656 18.6719C99.5573 18.276 100.974 18.0781 102.516 18.0781C104.151 18.0781 105.531 18.2812 106.656 18.6875C107.781 19.0938 108.688 19.6042 109.375 20.2188C110.073 20.8229 110.568 21.4792 110.859 22.1875C111.161 22.8854 111.312 23.5417 111.312 24.1562C111.312 24.6458 111.24 25.125 111.094 25.5938C110.958 26.0625 110.729 26.4896 110.406 26.875C110.094 27.2604 109.693 27.5729 109.203 27.8125C108.714 28.0417 108.115 28.1562 107.406 28.1562C106.729 28.1562 106.177 28.0625 105.75 27.875C105.323 27.6771 104.99 27.4375 104.75 27.1562C104.521 26.8646 104.354 26.5625 104.25 26.25C104.156 25.9271 104.109 25.625 104.109 25.3438C104.109 24.7083 104.26 24.2031 104.562 23.8281C104.865 23.4531 105.214 23.1927 105.609 23.0469C105.38 22.8698 105.146 22.7031 104.906 22.5469C104.677 22.3802 104.25 22.2969 103.625 22.2969ZM121.812 28.3594C121.854 29.9115 122.146 30.9844 122.688 31.5781C123.24 32.1615 124.026 32.4531 125.047 32.4531C125.391 32.4531 125.724 32.4062 126.047 32.3125C126.38 32.2083 126.688 32.0469 126.969 31.8281C127.25 31.599 127.49 31.3021 127.688 30.9375C127.896 30.5625 128.031 30.0938 128.094 29.5312H133.781C133.573 30.875 133.188 32 132.625 32.9062C132.073 33.8125 131.359 34.5469 130.484 35.1094C129.609 35.6615 128.589 36.0573 127.422 36.2969C126.266 36.5469 124.974 36.6719 123.547 36.6719C122.078 36.6719 120.698 36.4844 119.406 36.1094C118.115 35.7344 116.979 35.1667 116 34.4062C115.031 33.6354 114.271 32.6719 113.719 31.5156C113.167 30.349 112.891 28.9635 112.891 27.3594C112.891 25.8281 113.151 24.4844 113.672 23.3281C114.193 22.1719 114.922 21.2083 115.859 20.4375C116.807 19.6562 117.922 19.0677 119.203 18.6719C120.495 18.276 121.911 18.0781 123.453 18.0781C125.349 18.0781 126.979 18.3281 128.344 18.8281C129.708 19.3281 130.823 20.026 131.688 20.9219C132.552 21.8177 133.188 22.8958 133.594 24.1562C134 25.4167 134.193 26.8177 134.172 28.3594H121.812ZM124.125 22.2969C123.396 22.2969 122.854 22.5573 122.5 23.0781C122.156 23.5885 121.927 24.4375 121.812 25.625H126.391C126.328 24.6042 126.109 23.7969 125.734 23.2031C125.359 22.599 124.823 22.2969 124.125 22.2969ZM150.531 26.0156C150.531 25.6094 150.479 25.2865 150.375 25.0469C150.281 24.7969 150.156 24.6094 150 24.4844C149.854 24.349 149.688 24.2604 149.5 24.2188C149.312 24.1771 149.13 24.1562 148.953 24.1562C148.276 24.1562 147.771 24.3542 147.438 24.75C147.104 25.1458 146.938 25.7083 146.938 26.4375V28.6719C146.938 29.224 147.031 29.6198 147.219 29.8594C147.417 30.0885 147.792 30.2031 148.344 30.2031H149.188V36H136.125V30.2031H137.047C137.474 30.2031 137.797 30.0677 138.016 29.7969C138.245 29.5156 138.359 29.1823 138.359 28.7969V25.8281C138.359 25.3385 138.214 25.0104 137.922 24.8438C137.641 24.6667 137.318 24.5781 136.953 24.5781H136.125V18.7812H145.406L145.078 23.0781H145.344C145.573 21.474 146.276 20.2396 147.453 19.375C148.63 18.5104 150.229 18.0781 152.25 18.0781C153.677 18.0781 154.839 18.2812 155.734 18.6875C156.63 19.0938 157.323 19.6094 157.812 20.2344C158.312 20.849 158.651 21.5208 158.828 22.25C159.005 22.9688 159.094 23.6458 159.094 24.2812V28.6719C159.094 29.224 159.188 29.6198 159.375 29.8594C159.573 30.0885 159.948 30.2031 160.5 30.2031H161.344V36H150.531V26.0156ZM173.234 12.9844V18.7812H177.906V24.5781H173.234V29.375C173.234 30.0625 173.328 30.625 173.516 31.0625C173.714 31.5 174.115 31.7188 174.719 31.7188C175.052 31.7188 175.318 31.6562 175.516 31.5312C175.724 31.3958 175.885 31.224 176 31.0156C176.125 30.7969 176.203 30.5521 176.234 30.2812C176.266 30 176.281 29.6979 176.281 29.375V27.0469H178.078V29.5625C178.078 30.5729 177.969 31.5156 177.75 32.3906C177.542 33.2656 177.177 34.0208 176.656 34.6562C176.146 35.2917 175.448 35.7969 174.562 36.1719C173.677 36.5469 172.562 36.7344 171.219 36.7344C169.729 36.7344 168.542 36.5521 167.656 36.1875C166.771 35.8229 166.099 35.3229 165.641 34.6875C165.182 34.0521 164.88 33.2969 164.734 32.4219C164.599 31.5469 164.531 30.5938 164.531 29.5625V24.5781H162.078V19.4219C162.859 19.4219 163.583 19.2552 164.25 18.9219C164.927 18.5781 165.505 18.1094 165.984 17.5156C166.474 16.9115 166.849 16.224 167.109 15.4531C167.38 14.6823 167.516 13.8594 167.516 12.9844H173.234ZM188.969 18.7812L188.703 23.0781H188.969C189.333 21.4323 189.938 20.1875 190.781 19.3438C191.635 18.5 192.74 18.0781 194.094 18.0781C194.896 18.0781 195.583 18.2083 196.156 18.4688C196.74 18.7188 197.208 19.0573 197.562 19.4844C197.917 19.9115 198.172 20.4062 198.328 20.9688C198.484 21.5208 198.562 22.0938 198.562 22.6875C198.562 23.1771 198.49 23.6615 198.344 24.1406C198.198 24.6198 197.964 25.0521 197.641 25.4375C197.318 25.8229 196.901 26.1354 196.391 26.375C195.88 26.6042 195.25 26.7188 194.5 26.7188C193.458 26.7188 192.635 26.4531 192.031 25.9219C191.438 25.3906 191.141 24.75 191.141 24C191.141 23.6354 191.182 23.3281 191.266 23.0781C191.349 22.8177 191.432 22.6094 191.516 22.4531C191.609 22.2865 191.672 22.1667 191.703 22.0938C191.734 22.0208 191.698 21.9844 191.594 21.9844C191.375 21.9844 191.135 22.2344 190.875 22.7344C190.625 23.2344 190.5 24.0208 190.5 25.0938V28.6719C190.5 29.224 190.594 29.6198 190.781 29.8594C190.979 30.0885 191.354 30.2031 191.906 30.2031H192.844V36H179.688V30.2031H180.609C181.036 30.2031 181.359 30.0677 181.578 29.7969C181.807 29.5156 181.922 29.1823 181.922 28.7969V25.8281C181.922 25.3385 181.776 25.0104 181.484 24.8438C181.203 24.6667 180.88 24.5781 180.516 24.5781H179.688V18.7812H188.969ZM207.328 20.9531C206.797 20.9531 206.339 20.9948 205.953 21.0781C205.578 21.151 205.255 21.2396 204.984 21.3438C204.714 21.4479 204.49 21.5677 204.312 21.7031C204.135 21.8281 203.979 21.9427 203.844 22.0469L204 22.2031C204.198 22.099 204.411 21.9948 204.641 21.8906C204.88 21.7865 205.182 21.7344 205.547 21.7344C206.161 21.7344 206.693 21.9375 207.141 22.3438C207.589 22.7396 207.812 23.375 207.812 24.25C207.812 25.0833 207.469 25.7552 206.781 26.2656C206.104 26.7656 205.193 27.0156 204.047 27.0156C202.953 27.0156 202.078 26.7031 201.422 26.0781C200.776 25.4427 200.453 24.5469 200.453 23.3906C200.453 22.7552 200.63 22.125 200.984 21.5C201.339 20.8646 201.885 20.2969 202.625 19.7969C203.375 19.2969 204.323 18.8854 205.469 18.5625C206.625 18.2396 208.016 18.0781 209.641 18.0781C211.578 18.0781 213.161 18.2604 214.391 18.625C215.62 18.9896 216.573 19.4583 217.25 20.0312C217.938 20.6042 218.406 21.2552 218.656 21.9844C218.917 22.7135 219.047 23.4479 219.047 24.1875V30.2969C219.047 31.2448 219.078 31.8906 219.141 32.2344C219.203 32.5677 219.438 32.7344 219.844 32.7344C220.167 32.7344 220.391 32.5833 220.516 32.2812C220.651 31.9688 220.719 31.4375 220.719 30.6875V28.7344H222.5V30.7188C222.5 31.6562 222.422 32.4896 222.266 33.2188C222.109 33.9375 221.812 34.5573 221.375 35.0781C220.938 35.5885 220.344 35.974 219.594 36.2344C218.844 36.5052 217.885 36.6406 216.719 36.6406C215.667 36.6406 214.792 36.526 214.094 36.2969C213.406 36.0781 212.859 35.8021 212.453 35.4688C212.047 35.1354 211.755 34.7917 211.578 34.4375C211.411 34.0729 211.328 33.75 211.328 33.4688H211.078C211.016 33.8958 210.833 34.3021 210.531 34.6875C210.24 35.0729 209.828 35.4167 209.297 35.7188C208.776 36.0104 208.146 36.2448 207.406 36.4219C206.677 36.6094 205.844 36.7031 204.906 36.7031C204.01 36.7031 203.193 36.6146 202.453 36.4375C201.724 36.2708 201.099 36.0052 200.578 35.6406C200.068 35.2656 199.667 34.7865 199.375 34.2031C199.094 33.6094 198.953 32.9062 198.953 32.0938C198.953 31.0938 199.234 30.3073 199.797 29.7344C200.359 29.151 201.068 28.6927 201.922 28.3594C202.776 28.0156 203.703 27.7396 204.703 27.5312C205.714 27.3125 206.646 27.0521 207.5 26.75C208.354 26.4479 209.062 26.0573 209.625 25.5781C210.188 25.099 210.469 24.4219 210.469 23.5469C210.469 22.7656 210.224 22.1406 209.734 21.6719C209.245 21.1927 208.443 20.9531 207.328 20.9531ZM210.469 27.7188C210.24 28.0521 209.953 28.3229 209.609 28.5312C209.266 28.7292 208.932 28.9271 208.609 29.125C208.297 29.3125 208.021 29.5417 207.781 29.8125C207.552 30.0729 207.438 30.4271 207.438 30.875C207.438 31.2188 207.531 31.5312 207.719 31.8125C207.906 32.0833 208.271 32.2188 208.812 32.2188C209.302 32.2188 209.698 32.0312 210 31.6562C210.312 31.2708 210.469 30.7344 210.469 30.0469V27.7188ZM246.188 28.6719C246.188 29.224 246.281 29.6198 246.469 29.8594C246.667 30.0885 247.042 30.2031 247.594 30.2031H248.109V36H237.609V26.0156C237.609 25.6094 237.568 25.2865 237.484 25.0469C237.401 24.7969 237.286 24.6094 237.141 24.4844C237.005 24.349 236.844 24.2604 236.656 24.2188C236.479 24.1771 236.307 24.1562 236.141 24.1562C235.453 24.1562 234.979 24.3542 234.719 24.75C234.469 25.1458 234.344 25.7083 234.344 26.4375V28.6719C234.344 29.224 234.438 29.6198 234.625 29.8594C234.823 30.0885 235.198 30.2031 235.75 30.2031H236.266V36H223.531V30.2031H224.453C224.88 30.2031 225.203 30.0677 225.422 29.7969C225.651 29.5156 225.766 29.1823 225.766 28.7969V25.8281C225.766 25.3385 225.62 25.0104 225.328 24.8438C225.047 24.6667 224.724 24.5781 224.359 24.5781H223.531V18.7812H232.812L232.484 23.0781H232.75C232.979 21.474 233.625 20.2396 234.688 19.375C235.76 18.5104 237.312 18.0781 239.344 18.0781C240.104 18.0781 240.812 18.1823 241.469 18.3906C242.135 18.5885 242.724 18.8958 243.234 19.3125C243.755 19.7292 244.161 20.2552 244.453 20.8906C244.755 21.5156 244.927 22.2448 244.969 23.0781H245.188C245.281 22.2865 245.51 21.5781 245.875 20.9531C246.25 20.3177 246.719 19.7917 247.281 19.375C247.854 18.9583 248.479 18.6406 249.156 18.4219C249.844 18.1927 250.562 18.0781 251.312 18.0781C252.698 18.0781 253.828 18.2812 254.703 18.6875C255.578 19.0938 256.26 19.6094 256.75 20.2344C257.24 20.849 257.573 21.5208 257.75 22.25C257.938 22.9688 258.031 23.6458 258.031 24.2812V28.6719C258.031 29.224 258.125 29.6198 258.312 29.8594C258.51 30.0885 258.885 30.2031 259.438 30.2031H260.266V36H249.453V26.0156C249.453 25.6094 249.406 25.2865 249.312 25.0469C249.229 24.7969 249.12 24.6094 248.984 24.4844C248.849 24.349 248.688 24.2604 248.5 24.2188C248.323 24.1771 248.151 24.1562 247.984 24.1562C247.297 24.1562 246.823 24.3542 246.562 24.75C246.312 25.1458 246.188 25.7083 246.188 26.4375V28.6719Z" fill="white"/>
</svg>
